<?xml version="1.0" encoding="UTF-8" standalone="no"?>
<!-- Created with Inkscape (http://www.inkscape.org/) -->

<svg
   xmlns:dc="http://purl.org/dc/elements/1.1/"
   xmlns:cc="http://creativecommons.org/ns#"
   xmlns:rdf="http://www.w3.org/1999/02/22-rdf-syntax-ns#"
   xmlns:svg="http://www.w3.org/2000/svg"
   xmlns="http://www.w3.org/2000/svg"
   version="1.1"
   width="574.7616"
   height="253.1875"
   id="svg2"
   xml:space="preserve"><metadata
     id="metadata8"><rdf:RDF><cc:Work
         rdf:about=""><dc:format>image/svg+xml</dc:format><dc:type
           rdf:resource="http://purl.org/dc/dcmitype/StillImage" /><dc:title></dc:title></cc:Work></rdf:RDF></metadata><defs
     id="defs6"><clipPath
       id="clipPath16"><path
         d="m 97.275,296 400.73,0 0,238.701 -400.73,0 0,-238.701 z"
         id="path18" /></clipPath><clipPath
       id="clipPath52"><path
         d="m 97.275,296 400.73,0 0,238.701 -400.73,0 0,-238.701 z"
         id="path54" /></clipPath><clipPath
       id="clipPath64"><path
         d="m 0,841.89 595.28,0 L 595.28,0 0,0 0,841.89 z"
         id="path66" /></clipPath><clipPath
       id="clipPath72"><path
         d="m 94.2754,499.432 184.2426,0 0,-201.427 -184.2426,0 0,201.427 z"
         id="path74" /></clipPath><clipPath
       id="clipPath88"><path
         d="m 0,841.89 595.28,0 L 595.28,0 0,0 0,841.89 z"
         id="path90" /></clipPath><clipPath
       id="clipPath96"><path
         d="m 145.183,653.035 115.792,0 0,-275.05 -115.792,0 0,275.05 z"
         id="path98" /></clipPath><clipPath
       id="clipPath112"><path
         d="m 0,841.89 595.28,0 L 595.28,0 0,0 0,841.89 z"
         id="path114" /></clipPath><clipPath
       id="clipPath120"><path
         d="m 40.9025,519.781 164.9965,0 0,-164.975 -164.9965,0 0,164.975 z"
         id="path122" /></clipPath><clipPath
       id="clipPath136"><path
         d="m 214.75,519.692 70.711,0 0,-78.023 -70.711,0 0,78.023 z"
         id="path138" /></clipPath><clipPath
       id="clipPath152"><path
         d="m 127.305,583.048 77.212,0 0,-54.025 -77.212,0 0,54.025 z"
         id="path154" /></clipPath><clipPath
       id="clipPath168"><path
         d="m 192.717,542.239 35.559,0 0,-35.559 -35.559,0 0,35.559 z"
         id="path170" /></clipPath><clipPath
       id="clipPath184"><path
         d="m 213.238,541.362 14.236,0 0,-14.222 -14.236,0 0,14.222 z"
         id="path186" /></clipPath><clipPath
       id="clipPath200"><path
         d="m 0,841.89 595.28,0 L 595.28,0 0,0 0,841.89 z"
         id="path202" /></clipPath><clipPath
       id="clipPath208"><path
         d="m 153.923,399.688 135.669,0 0,-29.279 -135.669,0 0,29.279 z"
         id="path210" /></clipPath><clipPath
       id="clipPath224"><path
         d="m 150.102,421.928 35.454,0 0,-38.678 -35.454,0 0,38.678 z"
         id="path226" /></clipPath><clipPath
       id="clipPath240"><path
         d="m 38.1957,487.168 104.0293,0 0,-66.034 -104.0293,0 0,66.034 z"
         id="path242" /></clipPath><clipPath
       id="clipPath256"><path
         d="m 126.916,438.658 30.705,0 0,-27.312 -30.705,0 0,27.312 z"
         id="path258" /></clipPath></defs><g
     transform="matrix(1.25,0,0,-1.25,-47.744649,668.375)"
     id="g10"><g
       id="g12"
       style="fill:#ffffff"><g
         clip-path="url(#clipPath16)"
         id="g14"
         style="fill:#ffffff"><g
           transform="translate(317.0947,396.7299)"
           id="g20"
           style="fill:#ffffff"><path
             d="m 0,0 8.542,0 c 9.569,0 18.022,3.22 18.022,15.608 0,12.388 -8.453,15.608 -18.022,15.608 L 0,31.216 0,0 z m 6.261,26.296 3.488,0 c 5.232,0 10.286,-3.89 10.286,-10.688 C 20.035,8.81 14.981,4.919 9.749,4.919 l -3.488,0 0,21.377 z m 41.558,-14.221 -9.123,0 4.518,12.88 0.09,0 4.515,-12.88 z M 27.695,0 l 6.485,0 2.728,7.156 12.656,0 L 52.248,0 59.18,0 46.926,31.216 l -7.067,0 L 27.695,0 z m 38.237,0 6.26,0 0,26.296 8.946,0 0,4.92 -24.151,0 0,-4.92 8.945,0 0,-26.296 z m 33.089,12.075 -9.123,0 4.517,12.88 0.09,0 4.516,-12.88 z M 78.896,0 l 6.486,0 2.727,7.156 12.657,0 2.683,-7.156 6.932,0 -12.254,31.216 -7.066,0 L 78.896,0 z"
             id="path22"
             style="fill:#ffffff;fill-opacity:1;fill-rule:nonzero;stroke:none" /></g><g
           transform="translate(316.916,441.4515)"
           id="g24"
           style="fill:#ffffff"><path
             d="m 0,0 3.086,0 0,14.714 11.225,0 0,2.683 -11.225,0 0,11.136 11.762,0 0,2.683 L 0,31.216 0,0 z m 18.796,15.608 c 0.089,-9.571 4.739,-16.145 13.729,-16.145 8.99,0 13.641,6.574 13.73,16.145 0.09,8.452 -4.338,16.145 -13.73,16.145 -9.391,0 -13.819,-7.693 -13.729,-16.145 m 13.729,13.461 c 7.334,0 10.644,-6.842 10.644,-13.461 0,-6.619 -3.31,-13.461 -10.644,-13.461 -7.335,0 -10.643,6.842 -10.643,13.461 0,6.619 3.308,13.461 10.643,13.461 m 23.129,-0.536 3.175,0 c 4.249,0 7.871,-0.313 7.871,-5.412 0,-4.338 -4.158,-5.724 -7.78,-5.724 l -3.266,0 0,11.136 z M 52.568,0 l 3.086,0 0,14.714 2.549,0 c 2.952,0 4.293,-0.135 6.082,-4.16 L 68.803,0 72.201,0 66.88,12.075 c -0.984,2.102 -1.521,3.443 -4.026,3.757 l 0,0.089 c 3.846,0.492 6.932,3.175 6.932,7.2 0,5.725 -3.621,8.095 -9.168,8.095 l -8.05,0 0,-31.216 z"
             id="path26"
             style="fill:#ffffff;fill-opacity:1;fill-rule:nonzero;stroke:none" /></g><g
           transform="translate(317.0947,486.1737)"
           id="g28"
           style="fill:#ffffff"><path
             d="m 0,0 8.542,0 c 9.569,0 18.022,3.22 18.022,15.608 0,12.388 -8.453,15.608 -18.022,15.608 L 0,31.216 0,0 z m 6.261,26.296 3.488,0 c 5.232,0 10.286,-3.89 10.286,-10.688 C 20.035,8.81 14.981,4.919 9.749,4.919 l -3.488,0 0,21.377 z M 31.989,0 l 6.261,0 0,31.216 -6.261,0 0,-31.216 z m 37.91,30.456 c -2.683,0.805 -5.545,1.297 -9.168,1.297 -10.598,0 -17.128,-5.993 -17.128,-16.682 0,-10.554 7.022,-15.608 17.128,-15.608 3.355,0 6.797,0.716 10.108,1.61 l 0,16.816 -12.612,0 0,-4.92 6.619,0 0,-8.139 C 63.772,4.562 62.431,4.383 60.731,4.383 c -6.664,0 -10.598,4.785 -10.598,11.136 0,6.395 4.025,11.314 11.313,11.314 2.506,0 5.636,-0.537 8.051,-1.655 l 0.402,5.278 z m 32.24,0 c -2.683,0.805 -5.546,1.297 -9.168,1.297 -10.599,0 -17.129,-5.993 -17.129,-16.682 0,-10.554 7.022,-15.608 17.129,-15.608 3.354,0 6.798,0.716 10.107,1.61 l 0,16.816 -12.611,0 0,-4.92 6.618,0 0,-8.139 C 96.012,4.562 94.67,4.383 92.971,4.383 c -6.664,0 -10.599,4.785 -10.599,11.136 0,6.395 4.024,11.314 11.315,11.314 2.503,0 5.634,-0.537 8.048,-1.655 l 0.404,5.278 z M 109.58,0 l 6.261,0 0,31.216 -6.261,0 0,-31.216 z m 12.96,0 5.993,0 0,23.345 0.09,0 L 140.562,0 l 7.649,0 0,31.216 -5.993,0 0,-23.345 -0.089,0 -11.897,23.345 -7.692,0 0,-31.216 z m 57.432,30.456 c -2.684,0.805 -5.546,1.297 -9.168,1.297 -10.599,0 -17.129,-5.993 -17.129,-16.682 0,-10.554 7.02,-15.608 17.129,-15.608 3.354,0 6.797,0.716 10.107,1.61 l 0,16.816 -12.612,0 0,-4.92 6.619,0 0,-8.139 c -1.073,-0.268 -2.415,-0.447 -4.114,-0.447 -6.664,0 -10.599,4.785 -10.599,11.136 0,6.395 4.024,11.314 11.314,11.314 2.504,0 5.634,-0.537 8.049,-1.655 l 0.404,5.278 z"
             id="path30"
             style="fill:#ffffff;fill-opacity:1;fill-rule:nonzero;stroke:none" /></g></g></g><path
       d="m 106.275,332.15 192.45,0 0,20.769 -192.45,0 0,-20.769 z"
       id="path32"
       style="fill:#cc9800;fill-opacity:1;fill-rule:nonzero;stroke:none" /><path
       d="m 106.275,516.036 192.45,0 0,18.664 -192.45,0 0,-18.664 z"
       id="path34"
       style="fill:#cc9800;fill-opacity:1;fill-rule:nonzero;stroke:none" /><path
       d="m 106.275,427.812 192.45,0 0,16.829 -192.45,0 0,-16.829 z"
       id="path36"
       style="fill:#cc9800;fill-opacity:1;fill-rule:nonzero;stroke:none" /><path
       d="m 106.275,362.972 192.45,0 0,8.414 -192.45,0 0,-8.414 z"
       id="path38"
       style="fill:#cc9800;fill-opacity:1;fill-rule:nonzero;stroke:none" /><path
       d="m 106.275,451.906 192.45,0 0,8.414 -192.45,0 0,-8.414 z"
       id="path40"
       style="fill:#cc9800;fill-opacity:1;fill-rule:nonzero;stroke:none" /><path
       d="m 106.275,384.801 192.45,0 0,8.414 -192.45,0 0,-8.414 z"
       id="path42"
       style="fill:#cc9800;fill-opacity:1;fill-rule:nonzero;stroke:none" /><path
       d="m 106.275,474.953 192.45,0 0,8.414 -192.45,0 0,-8.414 z"
       id="path44"
       style="fill:#cc9800;fill-opacity:1;fill-rule:nonzero;stroke:none" /><path
       d="m 106.275,490.381 192.45,0 0,8.414 -192.45,0 0,-8.414 z"
       id="path46"
       style="fill:#cc9800;fill-opacity:1;fill-rule:nonzero;stroke:none" /><g
       id="g48"><g
         clip-path="url(#clipPath52)"
         id="g50"><g
           transform="translate(121.751,401.3441)"
           id="g56"><path
             d="m 0,0 c -3.632,0 -3.597,5.889 -3.597,8.992 0,3.173 0,9.132 3.597,9.132 3.667,0 3.667,-5.959 3.667,-9.132 C 3.667,5.889 3.702,0 0,0 m 0,-3.667 c 7.123,0 8.604,6.945 8.604,12.659 0,5.712 -1.411,12.8 -8.604,12.8 -6.664,0 -8.533,-6.63 -8.533,-12.8 0,-5.149 0.952,-12.659 8.533,-12.659 m 13.681,19.253 2.469,-3.209 4.161,3.385 0,-19.006 4.936,0 0,24.612 -4.372,0 -7.194,-5.782 z m 20.664,0 2.468,-3.209 4.161,3.385 0,-19.006 4.936,0 0,24.612 -4.372,0 -7.193,-5.782 z M 61.99,0 c -3.632,0 -3.597,5.889 -3.597,8.992 0,3.173 0,9.132 3.597,9.132 3.667,0 3.667,-5.959 3.667,-9.132 C 65.657,5.889 65.692,0 61.99,0 m 0,-3.667 c 7.122,0 8.603,6.945 8.603,12.659 0,5.712 -1.41,12.8 -8.603,12.8 -6.665,0 -8.534,-6.63 -8.534,-12.8 0,-5.149 0.952,-12.659 8.534,-12.659 M 82.653,0 c -3.632,0 -3.597,5.889 -3.597,8.992 0,3.173 0,9.132 3.597,9.132 3.667,0 3.667,-5.959 3.667,-9.132 C 86.32,5.889 86.355,0 82.653,0 m 0,-3.667 c 7.123,0 8.604,6.945 8.604,12.659 0,5.712 -1.411,12.8 -8.604,12.8 -6.665,0 -8.533,-6.63 -8.533,-12.8 0,-5.149 0.952,-12.659 8.533,-12.659 m 13.681,19.253 2.469,-3.209 4.16,3.385 0,-19.006 4.937,0 0,24.612 -4.372,0 -7.194,-5.782 z M 123.979,0 c -3.632,0 -3.596,5.889 -3.596,8.992 0,3.173 0,9.132 3.596,9.132 3.668,0 3.668,-5.959 3.668,-9.132 0,-3.103 0.035,-8.992 -3.668,-8.992 m 0,-3.667 c 7.123,0 8.604,6.945 8.604,12.659 0,5.712 -1.41,12.8 -8.604,12.8 -6.664,0 -8.533,-6.63 -8.533,-12.8 0,-5.149 0.952,-12.659 8.533,-12.659 M 144.643,0 c -3.632,0 -3.597,5.889 -3.597,8.992 0,3.173 0,9.132 3.597,9.132 3.667,0 3.667,-5.959 3.667,-9.132 C 148.31,5.889 148.345,0 144.643,0 m 0,-3.667 c 7.122,0 8.603,6.945 8.603,12.659 0,5.712 -1.41,12.8 -8.603,12.8 -6.665,0 -8.534,-6.63 -8.534,-12.8 0,-5.149 0.952,-12.659 8.534,-12.659 M 165.306,0 c -3.632,0 -3.597,5.889 -3.597,8.992 0,3.173 0,9.132 3.597,9.132 3.667,0 3.667,-5.959 3.667,-9.132 0,-3.103 0.035,-8.992 -3.667,-8.992 m 0,-3.667 c 7.123,0 8.604,6.945 8.604,12.659 0,5.712 -1.411,12.8 -8.604,12.8 -6.665,0 -8.534,-6.63 -8.534,-12.8 0,-5.149 0.953,-12.659 8.534,-12.659"
             id="path58"
             style="fill:#cc9800;fill-opacity:1;fill-rule:nonzero;stroke:none" /></g></g></g><g
       id="g196"><g
         clip-path="url(#clipPath200)"
         id="g198"><g
           id="g204"><g
             id="g206" /><g
             id="g212"><g
               clip-path="url(#clipPath208)"
               id="g214"><g
                 transform="translate(192.4268,399.6879)"
                 id="g216"><path
                   d="m 0,0 97.165,-12.59 c 0,0 -39.273,-18.703 -97.464,-16.511 0,0 -35.638,10.845 -35.796,14.783 0,0 -5.509,3.036 0.137,5.995 0,0 26.096,5.534 35.958,8.323"
                   id="path218"
                   style="fill:#aa182c;fill-opacity:1;fill-rule:nonzero;stroke:none" /></g></g></g></g><g
           id="g220"><g
             id="g222" /><g
             id="g228"><g
               clip-path="url(#clipPath224)"
               id="g230"><g
                 transform="translate(185.5562,386.1927)"
                 id="g232"><path
                   d="m 0,0 -27.523,5.289 c -3.752,0.15 0.74,16.617 0.74,16.617 2.358,6.669 -3.09,13.83 -3.09,13.83 l -4.794,-6.465 c 3.802,-1.462 -0.188,-17.808 -0.188,-17.808 -3.344,-11.082 8.397,-14.399 8.397,-14.399 C -24.232,-3.103 0,0 0,0"
                   id="path234"
                   style="fill:#aa182c;fill-opacity:1;fill-rule:nonzero;stroke:none" /></g></g></g></g><g
           id="g236"><g
             id="g238" /><g
             id="g244"><g
               clip-path="url(#clipPath240)"
               id="g246"><g
                 transform="translate(128.7324,446.3031)"
                 id="g248"><path
                   d="m 0,0 c 3.962,-2.703 8.389,-6.074 12.437,-9.806 4.046,-3.733 -4.459,-17.028 -10.021,-15.189 -4.893,1.617 -9.64,3.646 -13.674,5.617 -20.714,10.518 -42.836,23.451 -61.726,36.873 -6.802,4.891 -13.322,11.828 -17.359,19.353 -0.526,2.447 -0.056,3.247 2.347,3.993 8.545,0.204 18.209,-0.887 25.84,-4.376 C -41.147,26.714 -19.394,12.775 0,0"
                   id="path250"
                   style="fill:#aa182c;fill-opacity:1;fill-rule:nonzero;stroke:none" /></g></g></g></g><g
           id="g252"><g
             id="g254" /><g
             id="g260"><g
               clip-path="url(#clipPath256)"
               id="g262"><g
                 transform="translate(139.0937,438.2767)"
                 id="g264"><path
                   d="m 0,0 c -0.923,0.625 -2.27,0.457 -3.747,-0.325 -0.467,-0.214 -0.918,-0.507 -1.348,-0.859 -1.419,-1.05 -2.876,-2.582 -4.146,-4.459 -1.04,-1.538 -1.819,-3.106 -2.312,-4.561 -0.449,-0.962 -0.646,-1.939 -0.609,-2.85 -0.1,-1.505 0.257,-2.686 1.119,-3.268 0.321,-0.219 0.695,-0.34 1.108,-0.372 6.139,-3.152 12.278,-6.302 18.421,-9.452 2.544,-1.304 5.59,-0.947 6.802,0.799 1.063,1.529 1.591,2.293 2.654,3.822 1.212,1.746 0.483,4.726 -1.63,6.655 -5.102,4.651 -10.2,9.309 -15.3,13.962 C 0.864,-0.773 0.711,-0.656 0.553,-0.547 0.399,-0.332 0.216,-0.145 0,0"
                   id="path266"
                   style="fill:#aa182c;fill-opacity:1;fill-rule:nonzero;stroke:none" /></g></g></g></g></g></g></g></svg>